<mxfile host="app.diagrams.net" modified="2023-11-11T08:29:11.048Z" agent="Mozilla/5.0 (X11; Linux x86_64; rv:109.0) Gecko/20100101 Firefox/119.0" etag="T219yQtBeldqm0SlHukv" version="22.1.0" type="github">
  <diagram name="Page-1" id="kDd6vCQBPgRqK_6mCECh">
    <mxGraphModel dx="1434" dy="761" grid="1" gridSize="10" guides="1" tooltips="1" connect="1" arrows="1" fold="1" page="1" pageScale="1" pageWidth="827" pageHeight="1169" math="0" shadow="0">
      <root>
        <mxCell id="0" />
        <mxCell id="1" parent="0" />
        <mxCell id="BOCNn8BzWbkz3L4UH65w-1" value="" style="rounded=0;whiteSpace=wrap;html=1;" vertex="1" parent="1">
          <mxGeometry x="180" y="200" width="170" height="90" as="geometry" />
        </mxCell>
        <mxCell id="BOCNn8BzWbkz3L4UH65w-2" value="" style="ellipse;whiteSpace=wrap;html=1;aspect=fixed;" vertex="1" parent="1">
          <mxGeometry x="430" y="420" width="80" height="80" as="geometry" />
        </mxCell>
        <mxCell id="BOCNn8BzWbkz3L4UH65w-5" value="" style="curved=1;endArrow=classic;html=1;rounded=0;entryX=0;entryY=0.5;entryDx=0;entryDy=0;exitX=0.5;exitY=1;exitDx=0;exitDy=0;" edge="1" parent="1" source="BOCNn8BzWbkz3L4UH65w-1" target="BOCNn8BzWbkz3L4UH65w-2">
          <mxGeometry width="50" height="50" relative="1" as="geometry">
            <mxPoint x="250" y="330" as="sourcePoint" />
            <mxPoint x="320" y="400" as="targetPoint" />
            <Array as="points">
              <mxPoint x="270" y="330" />
              <mxPoint x="260" y="360" />
              <mxPoint x="180" y="360" />
              <mxPoint x="300" y="380" />
              <mxPoint x="270" y="400" />
            </Array>
          </mxGeometry>
        </mxCell>
      </root>
    </mxGraphModel>
  </diagram>
</mxfile>
